<?xml version="1.0" encoding="UTF-8"?>
<svg xmlns="http://www.w3.org/2000/svg" width="343" height="400" viewBox="0 0 343 400" fill="none">
  <g clip-path="url(#clip0_5257_14838)">
    <rect width="343" height="400" fill="#0AA342"></rect>
    <g clip-path="url(#clip1_5257_14838)">
      <path d="M341.609 422.315C341.609 449.085 322.894 473.581 292.071 491.462C261.283 509.323 218.658 520.414 171.5 520.414C124.342 520.414 81.7173 509.323 50.9294 491.462C20.106 473.581 1.39148 449.085 1.39148 422.315C1.39148 395.546 20.106 371.049 50.9294 353.168C81.7173 335.307 124.342 324.216 171.5 324.216C218.658 324.216 261.283 335.307 292.071 353.168C322.894 371.049 341.609 395.546 341.609 422.315Z" stroke="white" stroke-width="2.78296"></path>
      <path d="M341.609 349.958C341.609 376.727 322.894 401.223 292.071 419.105C261.283 436.965 218.658 448.057 171.5 448.057C124.342 448.057 81.7173 436.965 50.9294 419.105C20.106 401.223 1.39148 376.727 1.39148 349.958C1.39148 323.188 20.106 298.692 50.9294 280.811C81.7173 262.95 124.342 251.858 171.5 251.858C218.658 251.858 261.283 262.95 292.071 280.811C322.894 298.692 341.609 323.188 341.609 349.958Z" stroke="white" stroke-width="2.78296"></path>
      <path d="M330.1 459.179C338.643 447.232 343 434.489 343 421.668V101.926C343 101.926 328.27 195.113 171.5 195.113C14.7301 195.113 0 101.926 0 101.926V421.668C-1.93515e-06 434.489 4.35707 447.232 12.9003 459.179C21.4491 471.133 34.0197 482.048 49.9432 491.271C65.864 500.492 84.7943 507.823 105.661 512.83C126.525 517.835 148.899 520.414 171.5 520.414C194.101 520.414 216.475 517.835 237.339 512.83C258.206 507.823 277.136 500.492 293.057 491.271C308.98 482.048 321.551 471.133 330.1 459.179Z" fill="#D9D9D9" fill-opacity="0.2"></path>
      <path d="M341.609 99C341.609 125.63 322.898 150.004 292.073 167.798C261.285 185.571 218.659 196.609 171.5 196.609C124.341 196.609 81.7152 185.571 50.9268 167.798C20.1017 150.004 1.39148 125.63 1.39148 99C1.39148 72.3696 20.1017 47.9956 50.9268 30.2015C81.7152 12.4287 124.341 1.39148 171.5 1.39148C218.659 1.39148 261.285 12.4287 292.073 30.2015C322.898 47.9956 341.609 72.3696 341.609 99Z" stroke="white" stroke-width="2.78296"></path>
      <path d="M171.848 1.39062V520.413" stroke="white" stroke-width="2.78296"></path>
    </g>
  </g>
  <defs>
    <clipPath id="clip0_5257_14838">
      <rect width="343" height="400" fill="white"></rect>
    </clipPath>
    <clipPath id="clip1_5257_14838">
      <rect width="343" height="521.805" fill="white"></rect>
    </clipPath>
  </defs>
</svg>
