<?xml version="1.0" encoding="UTF-8"?>
<svg xmlns="http://www.w3.org/2000/svg" width="343" height="450" viewBox="0 0 343 450" fill="none">
  <g clip-path="url(#clip0_13661_8789)">
    <rect width="343" height="450" fill="#F8F8F8"></rect>
    <g clip-path="url(#clip1_13661_8789)">
      <path d="M174.474 189.303C152.737 190.867 133.856 174.494 132.329 152.754C130.802 131.015 147.208 112.162 168.95 110.672C190.64 109.185 209.437 125.543 210.96 147.23C212.484 168.918 196.159 187.742 174.474 189.303Z" fill="#E34343"></path>
      <path d="M118.136 286.391C116.978 285.434 115.309 283.61 114.201 282.496L106.984 275.227L83.8237 251.674L49.2662 216.746C43.681 211.11 36.7424 204.363 31.3633 198.57L114.065 198.67C117.878 206.021 122.918 213.673 127.107 220.954C139.634 242.725 152.866 264.162 165.064 286.119C164.003 286.272 161.147 286.21 159.95 286.204L150.502 286.171C139.663 286.166 128.977 286.172 118.136 286.391Z" fill="#E34343"></path>
      <path d="M122.27 198.735L216.446 198.683L220.539 198.615C218.9 202.153 216.451 206.167 214.438 209.572C207.503 221.3 200.693 233.131 193.803 244.88L171.66 282.835C170.982 281.863 170.414 280.896 169.818 279.874C164.794 271.252 159.486 262.818 154.562 254.137L131.205 214.369L125.713 205.004C124.644 203.183 123.071 200.632 122.27 198.735Z" fill="#E34343"></path>
      <path d="M228.872 198.698L236.349 198.678C261.33 198.289 286.604 198.936 311.708 198.566C307.35 203.211 302.171 208.273 297.64 212.801L276.936 233.516L238.743 271.994L224.249 286.204C217.831 286.37 210.896 286.188 204.428 286.186L177.844 286.271C180.903 279.928 186.639 270.578 190.303 264.391L206.636 236.502L221.764 210.62C223.873 207.033 226.572 202.025 228.872 198.698Z" fill="#E34343"></path>
      <path d="M117.622 462.367C117.821 456.316 117.72 449.693 117.72 443.603L117.617 405.588L117.657 291.908L167.58 291.991L167.589 462.287L117.622 462.367Z" fill="#E34343"></path>
      <path d="M175.617 462.342L175.627 291.961C192.002 291.862 208.762 291.781 225.116 291.992C224.965 305.806 225.231 319.725 225.246 333.554L225.145 462.279C220.433 462.621 212.624 462.431 207.724 462.428L175.617 462.342Z" fill="#E34343"></path>
    </g>
  </g>
  <defs>
    <clipPath id="clip0_13661_8789">
      <rect width="343" height="450" fill="white"></rect>
    </clipPath>
    <clipPath id="clip1_13661_8789">
      <rect width="385" height="385" fill="white" transform="translate(-21 95)"></rect>
    </clipPath>
  </defs>
</svg>
