<?xml version="1.0" encoding="UTF-8"?>
<svg xmlns="http://www.w3.org/2000/svg" width="151" height="46" viewBox="0 0 151 46" fill="none">
  <path fill-rule="evenodd" clip-rule="evenodd" d="M19.5841 3.89893C8.76389 3.89893 0 12.6628 0 23.483C0 32.149 5.60595 39.4686 13.3906 42.0635C14.3698 42.2348 14.737 41.6473 14.737 41.1332C14.737 40.6681 14.7126 39.1258 14.7126 37.4857C9.79206 38.3914 8.51909 36.2861 8.12741 35.1845C7.90708 34.6215 6.95236 32.8834 6.12003 32.4183C5.43459 32.0511 4.45538 31.1453 6.09555 31.1208C7.6378 31.0964 8.73941 32.5407 9.10661 33.1282C10.8692 36.0903 13.6844 35.258 14.8105 34.7439C14.9818 33.4709 15.4959 32.6141 16.059 32.1245C11.7015 31.6349 7.1482 29.9458 7.1482 22.4549C7.1482 20.3251 7.90708 18.5625 9.15557 17.1916C8.95973 16.702 8.27429 14.6947 9.35141 12.0019C9.35141 12.0019 10.9916 11.4878 14.737 14.0092C16.3038 13.5686 17.9684 13.3483 19.6331 13.3483C21.2977 13.3483 22.9624 13.5686 24.5291 14.0092C28.2746 11.4633 29.9147 12.0019 29.9147 12.0019C30.9919 14.6947 30.3064 16.702 30.1106 17.1916C31.3591 18.5625 32.1179 20.3006 32.1179 22.4549C32.1179 29.9703 27.5402 31.6349 23.1827 32.1245C23.8926 32.7365 24.5046 33.9116 24.5046 35.7476C24.5046 38.367 24.4801 40.4722 24.4801 41.1332C24.4801 41.6473 24.8473 42.2593 25.8265 42.0635C29.7143 40.751 33.0927 38.2523 35.486 34.9192C37.8793 31.5861 39.1672 27.5864 39.1682 23.483C39.1682 12.6628 30.4043 3.89893 19.5841 3.89893Z" fill="#757677"></path>
  <path d="M91.2979 32.9358H91.2522C91.2727 32.9358 91.2864 32.9586 91.307 32.9609H91.3207L91.2979 32.9381V32.9358ZM91.307 32.9609C91.0945 32.9632 90.5599 33.0752 89.9955 33.0752C88.2133 33.0752 87.5965 32.2526 87.5965 31.1788V24.025H91.2293C91.4349 24.025 91.5949 23.8422 91.5949 23.5909V19.7067C91.5949 19.5011 91.4121 19.3183 91.2293 19.3183H87.5965V14.4974C87.5965 14.3146 87.4822 14.2003 87.2766 14.2003H82.3414C82.1358 14.2003 82.0215 14.3146 82.0215 14.4974V19.4554C82.0215 19.4554 79.5311 20.0723 79.3711 20.0951C79.1883 20.1408 79.0741 20.3008 79.0741 20.4836V23.5909C79.0741 23.8422 79.2569 24.025 79.4625 24.025H81.9987V31.5192C81.9987 37.0942 85.8828 37.6654 88.5332 37.6654C89.7442 37.6654 91.2065 37.2769 91.4349 37.1627C91.572 37.117 91.6406 36.9571 91.6406 36.7971V33.3699C91.6437 33.2727 91.6117 33.1776 91.5505 33.1021C91.4892 33.0265 91.4028 32.9756 91.307 32.9586V32.9609ZM145.448 27.932C145.448 23.7965 143.78 23.2482 142.021 23.431C140.65 23.5224 139.553 24.2078 139.553 24.2078V32.2503C139.553 32.2503 140.673 33.0272 142.341 33.0729C144.694 33.1414 145.448 32.296 145.448 27.932ZM151 27.5665C151 35.4034 148.464 37.6425 144.031 37.6425C140.284 37.6425 138.274 35.7461 138.274 35.7461C138.274 35.7461 138.182 36.7971 138.068 36.9342C137.999 37.0713 137.885 37.117 137.748 37.117H134.367C134.138 37.117 133.932 36.9342 133.932 36.7286L133.978 11.3443C133.978 11.1387 134.161 10.9559 134.367 10.9559H139.233C139.439 10.9559 139.622 11.1387 139.622 11.3443V19.9581C139.622 19.9581 141.495 18.7471 144.237 18.7471L144.214 18.7014C146.956 18.7014 151 19.7296 151 27.5665ZM131.076 19.3183H126.278C126.027 19.3183 125.89 19.5011 125.89 19.7524V32.1818C125.89 32.1818 124.633 33.0729 122.92 33.0729C121.206 33.0729 120.703 32.296 120.703 30.5824V19.7296C120.703 19.5239 120.521 19.3412 120.315 19.3412H115.425C115.22 19.3412 115.037 19.5239 115.037 19.7296V31.405C115.037 36.4316 117.847 37.6882 121.709 37.6882C124.885 37.6882 127.466 35.9289 127.466 35.9289C127.466 35.9289 127.581 36.82 127.649 36.9571C127.695 37.0713 127.855 37.1627 128.015 37.1627H131.076C131.328 37.1627 131.465 36.9799 131.465 36.7743L131.511 19.7067C131.511 19.5011 131.328 19.3183 131.076 19.3183ZM76.9264 19.2955H72.0597C71.8541 19.2955 71.6713 19.5011 71.6713 19.7524V36.5229C71.6713 36.9799 71.9683 37.1398 72.3568 37.1398H76.7436C77.2006 37.1398 77.3148 36.9342 77.3148 36.5229V19.6839C77.3148 19.4782 77.132 19.2955 76.9264 19.2955ZM74.5273 11.5728C72.768 11.5728 71.3743 12.9665 71.3743 14.7258C71.3743 16.4851 72.768 17.8789 74.5273 17.8789C76.2409 17.8789 77.6347 16.4851 77.6347 14.7258C77.6347 12.9665 76.2409 11.5728 74.5273 11.5728ZM112.204 11.0016H107.383C107.177 11.0016 106.995 11.1844 106.995 11.39V20.7349H99.4318V11.39C99.4318 11.1844 99.249 11.0016 99.0434 11.0016H94.1767C93.9711 11.0016 93.7883 11.1844 93.7883 11.39V36.7743C93.7883 36.9799 93.9939 37.1627 94.1767 37.1627H99.0434C99.249 37.1627 99.4318 36.9799 99.4318 36.7743V25.9214H106.995L106.949 36.7743C106.949 36.9799 107.132 37.1627 107.337 37.1627H112.204C112.41 37.1627 112.592 36.9799 112.592 36.7743V11.39C112.592 11.1844 112.41 11.0016 112.204 11.0016ZM69.0895 22.2429V35.3577C69.0895 35.4491 69.0666 35.609 68.9524 35.6547C68.9524 35.6547 66.0964 37.6882 61.3897 37.6882C55.7005 37.6882 48.9603 35.906 48.9603 24.1621C48.9603 12.4182 54.8551 9.99627 60.6128 10.0191C65.5937 10.0191 67.6043 11.1387 67.9242 11.3443C68.0156 11.4586 68.0613 11.5499 68.0613 11.6642L67.1017 15.7312C67.1017 15.9368 66.896 16.1881 66.6447 16.1196C65.8222 15.8682 64.5884 15.3656 61.6867 15.3656C58.328 15.3656 54.718 16.3252 54.718 23.8879C54.718 31.4507 58.1452 32.3417 60.6128 32.3417C62.7148 32.3417 63.4688 32.0904 63.4688 32.0904V26.8353H60.1102C59.8588 26.8353 59.676 26.6526 59.676 26.4469V22.2429C59.676 22.0372 59.8588 21.8544 60.1102 21.8544H68.6554C68.9067 21.8544 69.0895 22.0372 69.0895 22.2429Z" fill="#757677"></path>
</svg>
