<?xml version="1.0" encoding="UTF-8"?>
<svg xmlns="http://www.w3.org/2000/svg" width="147" height="50" viewBox="0 0 147 50" fill="none">
  <g clip-path="url(#clip0_15_5997)">
    <path d="M51.3616 38.2008V21.5643H51.658L63.7677 38.2008H67.5785V13.7699H63.3443V30.3645H63.0479L50.9382 13.7699H47.1274V38.2008H51.3616ZM79.5612 38.578C85.1503 38.578 88.58 34.9741 88.58 28.9397C88.58 22.9472 85.1503 19.3014 79.5612 19.3014C74.0144 19.3014 70.5424 22.9472 70.5424 28.9397C70.5847 34.9741 73.9721 38.578 79.5612 38.578ZM79.5612 35.0579C76.5973 35.0579 74.9036 32.8369 74.9036 28.9397C74.9036 25.0844 76.5973 22.8215 79.5612 22.8215C82.5251 22.8215 84.2188 25.0844 84.2188 28.9397C84.2188 32.8369 82.5251 35.0579 79.5612 35.0579ZM92.4331 15.1528V19.8043H89.4692V23.1567H92.4331V33.256C92.4331 36.8598 94.1267 38.2846 98.4456 38.2846C99.2501 38.2846 100.055 38.2008 100.69 38.0751V34.8065C100.182 34.8484 99.8429 34.8903 99.2501 34.8903C97.4717 34.8903 96.6673 34.0941 96.6673 32.2502V23.1567H100.69V19.8043H96.6673V15.1528H92.4331ZM103.23 38.2008H107.464V19.6786H103.23V38.2008ZM105.347 16.6195C106.745 16.6195 107.888 15.488 107.888 14.1052C107.888 12.6804 106.745 11.5489 105.347 11.5489C103.95 11.5489 102.807 12.6804 102.807 14.1052C102.807 15.488 103.95 16.6195 105.347 16.6195ZM119.066 38.578C124.655 38.578 128.085 34.9741 128.085 28.9397C128.085 22.9472 124.655 19.3014 119.066 19.3014C113.519 19.3014 110.047 22.9472 110.047 28.9397C110.047 34.9741 113.435 38.578 119.066 38.578ZM119.066 35.0579C116.102 35.0579 114.408 32.8369 114.408 28.9397C114.408 25.0844 116.102 22.8215 119.066 22.8215C121.988 22.8215 123.724 25.0844 123.724 28.9397C123.681 32.8369 121.988 35.0579 119.066 35.0579ZM130.583 38.2008H134.817V27.4311C134.817 24.7072 136.426 22.9891 138.924 22.9891C141.507 22.9891 142.693 24.4139 142.693 27.2216V38.2008H146.927V26.2158C146.927 21.7739 144.64 19.3014 140.491 19.3014C137.696 19.3014 135.833 20.5586 134.944 22.6539H134.648V19.6786H130.541C130.583 19.6786 130.583 38.2008 130.583 38.2008Z" fill="#757677"></path>
    <path fill-rule="evenodd" clip-rule="evenodd" d="M6.5289 12.2062C7.76126 13.2004 8.20701 13.1219 10.5144 12.965L32.2512 11.6568C32.7232 11.6568 32.3298 11.1859 32.1725 11.1336L28.5541 8.54345C27.8724 8.0202 26.9284 7.39229 25.1717 7.54927L4.14284 9.09287C3.38244 9.17136 3.22512 9.5638 3.53976 9.85159L6.5289 12.2062ZM7.83992 17.2556V40.0695C7.83992 41.2992 8.443 41.7439 9.83268 41.6655L33.7195 40.2788C35.1092 40.2003 35.2665 39.3631 35.2665 38.3689V15.712C35.2665 14.7179 34.8732 14.1684 34.0342 14.2469L9.07228 15.712C8.15457 15.7905 7.83992 16.2615 7.83992 17.2556ZM31.4121 18.4853C31.5695 19.1655 31.4121 19.8719 30.7304 19.9504L29.5767 20.1859V37.0347C28.5803 37.5579 27.6626 37.8719 26.876 37.8719C25.6436 37.8719 25.329 37.4794 24.4113 36.3283L16.886 24.5289V35.9358L19.2721 36.4591C19.2721 36.4591 19.2721 37.8457 17.358 37.8457L12.0614 38.1596C11.9041 37.8457 12.0614 37.087 12.5858 36.93L13.9755 36.5376V21.4678L12.0614 21.3109C11.9041 20.6306 12.2974 19.6364 13.3724 19.558L19.0623 19.1655L26.9022 31.0957V20.5521L24.9095 20.3167C24.7521 19.4795 25.3814 18.8516 26.1418 18.7731L31.4121 18.4853ZM2.38606 6.99985L24.2802 5.40392C26.9546 5.16846 27.6626 5.32544 29.3407 6.55508L36.3154 11.4475C37.4691 12.2847 37.8624 12.5202 37.8624 13.4359V40.305C37.8624 41.9794 37.2593 42.9736 35.1092 43.1306L9.70158 44.6742C8.07591 44.7527 7.31551 44.5172 6.47646 43.4445L1.31102 36.773C0.393307 35.5434 0 34.6277 0 33.555V9.66845C0 8.28182 0.629291 7.15683 2.38606 6.99985Z" fill="#757677"></path>
  </g>
  <defs>
    <clipPath id="clip0_15_5997">
      <rect width="146.927" height="50" fill="white"></rect>
    </clipPath>
  </defs>
</svg>
