<?xml version="1.0" encoding="UTF-8"?>
<svg xmlns="http://www.w3.org/2000/svg" width="147" height="48" viewBox="0 0 147 48" fill="none">
  <path d="M90.7168 37.3995H95.5529V9.63965H90.7168V37.3995Z" fill="#757677"></path>
  <path fill-rule="evenodd" clip-rule="evenodd" d="M64.0556 37.1163C65.1068 37.5534 66.1755 37.7717 67.2621 37.7717C69.0573 37.7717 70.6633 37.3349 72.0806 36.4609C73.4978 35.587 74.5961 34.3822 75.3757 32.8471C76.1552 31.2998 76.5448 29.5461 76.5448 27.5856C76.5448 25.625 76.1434 23.8713 75.3403 22.3241C74.5372 20.777 73.4211 19.5783 71.992 18.7279C70.5631 17.8658 68.9392 17.4406 67.1203 17.4524C65.963 17.4524 64.8528 17.6768 63.79 18.1256C62.7269 18.5744 61.8413 19.2121 61.1325 20.0389C61.0779 20.1018 61.0247 20.1654 60.9732 20.2296V9.65771H56.1191V37.3999H60.9378L60.928 34.8082C61.0528 34.961 61.1859 35.1102 61.3275 35.2562C62.0952 36.0476 63.0046 36.6676 64.0556 37.1163ZM69.0159 32.6344C68.2246 33.1185 67.3211 33.3608 66.3055 33.3608C65.3016 33.3608 64.3804 33.1127 63.5418 32.6167C62.7033 32.1088 62.036 31.418 61.54 30.544C61.0559 29.6701 60.8138 28.678 60.8138 27.5679C60.8019 26.4577 61.0382 25.4656 61.5223 24.5917C62.0184 23.7059 62.6856 23.0209 63.5241 22.5367C64.3627 22.0407 65.2897 21.7986 66.3055 21.8104C67.3211 21.7986 68.2246 22.0348 69.0159 22.519C69.819 22.9914 70.4331 23.6705 70.8583 24.5562C71.2952 25.4302 71.5137 26.4341 71.5137 27.5679C71.5137 28.7016 71.2952 29.7055 70.8583 30.5794C70.4331 31.4534 69.819 32.1384 69.0159 32.6344Z" fill="#757677"></path>
  <path d="M0 11.3232H5.52713L10.4714 29.3798L15.7312 11.3232H20.3371L26.0415 29.0175L30.7891 11.3232H35.8556L28.3798 37.4001H23.6143L17.814 20.1143L12.4892 37.4001H7.67062L0 11.3232Z" fill="#757677"></path>
  <path fill-rule="evenodd" clip-rule="evenodd" d="M44.0201 37.8601C42.0949 37.8717 40.3589 37.4465 38.8117 36.5845C37.2765 35.7105 36.0659 34.5 35.1801 32.9529C34.3062 31.4057 33.8691 29.6401 33.8691 27.656C33.8691 25.731 34.3181 23.989 35.2156 22.43C36.113 20.8711 37.3296 19.6546 38.8648 18.7807C40.4002 17.9067 42.1126 17.4697 44.0024 17.4697C46.1281 17.4697 47.9883 17.9421 49.5826 18.887C51.1888 19.8318 52.3875 21.1722 53.1788 22.9083C53.9819 24.6326 54.2712 26.6108 54.0469 28.8428H38.8724C38.9148 29.7321 39.1367 30.5413 39.5381 31.2699C39.9869 32.073 40.6129 32.699 41.4158 33.1477C42.2189 33.5964 43.1166 33.8208 44.1086 33.8208C44.8644 33.8091 45.5671 33.6792 46.2167 33.4312C46.8663 33.1714 47.4154 32.8229 47.8643 32.3861C48.3248 31.949 48.6495 31.453 48.8385 30.898H53.9052C53.5981 32.2561 52.984 33.4667 52.0628 34.5295C51.1415 35.5806 49.9841 36.4014 48.5906 36.992C47.1969 37.5824 45.6734 37.8717 44.0201 37.8601ZM39.5558 23.9712C39.2727 24.4648 39.0767 24.9962 38.9676 25.5656H49.0263C48.9533 24.8463 48.7313 24.1908 48.3602 23.5992C47.9352 22.9024 47.3564 22.365 46.6242 21.9871C45.8919 21.5974 45.0653 21.4025 44.144 21.4025C43.1639 21.4025 42.2722 21.6269 41.4691 22.0757C40.666 22.5245 40.0281 23.1563 39.5558 23.9712Z" fill="#757677"></path>
  <path d="M80.1061 17.8768C80.1061 16.2943 80.4665 14.8889 81.1869 13.6606C81.9073 12.4205 82.9171 11.458 84.2162 10.773C85.527 10.0762 87.0565 9.71601 88.8044 9.69238V13.9972C87.9894 14.009 87.2928 14.1803 86.714 14.5109C86.1472 14.8298 85.7101 15.2963 85.403 15.9104C85.1203 16.4758 84.9677 17.1313 84.9453 17.8768H88.6981V21.969H84.9424V37.3991H80.1061V21.969H76.9883V17.8768H80.1061Z" fill="#757677"></path>
  <path fill-rule="evenodd" clip-rule="evenodd" d="M107.849 37.8253C105.877 37.8253 104.111 37.394 102.552 36.532C101.005 35.658 99.7886 34.4533 98.9028 32.9181C98.0289 31.3709 97.5918 29.6172 97.5918 27.6566C97.5918 25.6844 98.0289 23.9246 98.9028 22.3775C99.7886 20.8185 101.005 19.608 102.552 18.7458C104.111 17.8837 105.877 17.4526 107.849 17.4526C109.833 17.4526 111.605 17.8837 113.164 18.7458C114.734 19.608 115.957 20.8126 116.831 22.3598C117.705 23.9069 118.147 25.6725 118.159 27.6566C118.147 29.6172 117.705 31.3709 116.831 32.9181C115.969 34.4533 114.752 35.658 113.181 36.532C111.611 37.394 109.833 37.8253 107.849 37.8253ZM107.849 33.3787C108.888 33.3787 109.81 33.1425 110.613 32.67C111.416 32.1859 112.036 31.5125 112.473 30.6505C112.91 29.7765 113.128 28.7787 113.128 27.6566C113.128 26.5229 112.91 25.519 112.473 24.645C112.036 23.7711 111.416 23.0979 110.613 22.6255C109.81 22.1413 108.888 21.8992 107.849 21.8992C106.822 21.8992 105.906 22.1413 105.103 22.6255C104.312 23.0979 103.698 23.7711 103.261 24.645C102.824 25.519 102.611 26.5229 102.623 27.6566C102.623 28.7787 102.841 29.7765 103.278 30.6505C103.727 31.5125 104.341 32.1859 105.121 32.67C105.912 33.1425 106.822 33.3787 107.849 33.3787Z" fill="#757677"></path>
  <path d="M123.385 17.8779H118L123.828 37.4002H128.541L132.374 24.9313L136.513 37.4002H141.154L147 17.8779H142.129L138.813 30.0293L135.149 17.8779H130.436L126.789 30.297L123.385 17.8779Z" fill="#757677"></path>
</svg>
