<?xml version="1.0" encoding="UTF-8"?>
<svg xmlns="http://www.w3.org/2000/svg" width="47" height="30" viewBox="0 0 47 30" fill="none">
  <path d="M23.902 18.8379C23.902 28.7348 35.0855 30 35.0855 30V0H23.902V18.8379Z" fill="#111111"></path>
  <path d="M11.9145 18.8379C11.9145 28.7348 23.1711 30 23.1711 30V0H11.9145V18.8379Z" fill="#111111"></path>
  <path d="M0 18.8379C0 28.7348 11.1835 30 11.1835 30V0H0V18.8379Z" fill="#111111"></path>
  <path d="M47 24.3193C47 27.4567 44.4965 30 41.4082 30C38.32 30 35.8165 27.4567 35.8165 24.3193C35.8165 21.1819 38.32 18.6386 41.4082 18.6386C44.4965 18.6386 47 21.1819 47 24.3193Z" fill="#111111"></path>
  <path d="M35.8165 0H47V17.896H35.8165V0Z" fill="#111111"></path>
</svg>
