<?xml version="1.0" encoding="UTF-8"?>
<svg xmlns="http://www.w3.org/2000/svg" width="59" height="38" viewBox="0 0 59 38" fill="none">
  <path d="M30.0047 23.4834C30.0047 35.6896 44.0435 37.25 44.0435 37.25V0.25H30.0047V23.4834Z" fill="white"></path>
  <path d="M14.9565 23.4834C14.9565 35.6896 29.0871 37.25 29.0871 37.25V0.25H14.9565V23.4834Z" fill="white"></path>
  <path d="M0 23.4834C0 35.6896 14.0389 37.25 14.0389 37.25V0.25H0V23.4834Z" fill="white"></path>
  <path d="M59 30.2438C59 34.1132 55.8573 37.25 51.9806 37.25C48.1038 37.25 44.9611 34.1132 44.9611 30.2438C44.9611 26.3744 48.1038 23.2376 51.9806 23.2376C55.8573 23.2376 59 26.3744 59 30.2438Z" fill="white"></path>
  <path d="M44.9611 0.25H59V22.3218H44.9611V0.25Z" fill="white"></path>
</svg>
