<?xml version="1.0" encoding="UTF-8"?>
<svg xmlns="http://www.w3.org/2000/svg" width="280" height="280" viewBox="0 0 280 280" fill="none">
  <path fill-rule="evenodd" clip-rule="evenodd" d="M69.9951 70.0037L209.996 69.9967C209.994 31.2633 178.726 -0.00193485 139.992 8.98073e-08C101.258 0.00193266 69.9931 31.2703 69.9951 70.0037ZM209.996 69.9955C248.73 69.9935 279.998 101.259 280 139.992C280.002 178.726 248.737 209.994 210.003 209.996L209.996 69.9955ZM210.004 209.997C210.006 248.731 178.741 279.999 140.007 280.001C101.43 280.003 70.006 248.739 70.003 210.006C31.4254 210.008 0.00193391 178.743 8.96877e-08 140.01C-0.00193357 101.276 31.2634 70.0078 69.997 70.0059L70.004 210.004L210.004 209.997Z" fill="#F45E09"></path>
</svg>
