<?xml version="1.0" encoding="UTF-8"?>
<svg xmlns="http://www.w3.org/2000/svg" width="280" height="280" viewBox="0 0 280 280" fill="none">
  <path fill-rule="evenodd" clip-rule="evenodd" d="M140 70C140 31.2667 171.267 0 210 0C248.733 0 280 31.2667 280 70C280 108.733 248.733 140 210 140V70H140ZM70 140V70H140C140 108.733 171.267 140 210 140V210H140C140 171.267 108.733 140 70 140ZM70 140C31.2667 140 0 171.267 0 210C0 248.733 31.2667 280 70 280C108.733 280 140 248.733 140 210H70V140Z" fill="#0967F4"></path>
</svg>
