<svg width="145" height="50" viewBox="0 0 145 50" fill="none" xmlns="http://www.w3.org/2000/svg">
<path fill-rule="evenodd" clip-rule="evenodd" d="M18 1C11.373 1 6 6.373 6 13V37C6 43.627 11.373 49 18 49H42C48.627 49 54 43.627 54 37V13C54 6.373 48.627 1 42 1H18ZM45.9 15.112L37.911 10.15H33.555L37.185 16.5295L29.1975 10.15H24.84L28.8345 17.9485L20.4825 10.15H16.125L20.4825 20.0755L16.125 39.925H20.4825L28.8345 18.658L24.84 39.925H29.1975L37.185 17.2405L33.555 39.925H37.911L45.9 15.112Z" fill="#757677"/>
<path fill-rule="evenodd" clip-rule="evenodd" d="M105.602 25.4475C105.602 20.4285 109.184 18.561 112.969 17.7105C114.302 17.409 115.991 17.334 115.991 17.334V21.6525C115.991 21.6525 109.951 21.66 109.951 26.0985V36.063H105.602V25.4475ZM72.8244 17.1195C74.5179 17.121 76.6329 18.0795 77.7849 19.764C78.9789 18.231 80.9409 17.196 83.3649 17.157C86.4444 17.118 90.2529 19.035 90.2529 24.783V36.0495H85.9029V24.783C85.9029 22.8675 84.5169 21.489 82.4424 21.489C80.3679 21.489 78.9804 22.8675 78.9804 24.783V36.0495H74.6319V24.783C74.6319 22.8675 73.2474 21.489 71.1699 21.489C69.0939 21.489 67.6689 22.8675 67.6689 24.783V36.0495H63.0954V17.691H67.6689V19.5345C68.9004 18.042 70.7079 17.121 72.8244 17.1195ZM100.253 17.925V36.063H95.8299V17.925H100.253ZM98.0409 15.039C96.6774 15.039 95.5719 13.938 95.5719 12.582C95.5719 11.2245 96.6774 10.125 98.0409 10.125C99.4044 10.125 100.51 11.2245 100.51 12.582C100.51 13.938 99.4044 15.039 98.0409 15.039ZM127.801 17.0805C133.156 17.0805 137.495 21.399 137.495 26.7285C137.495 32.0565 133.156 36.375 127.801 36.375C122.446 36.375 118.106 32.0565 118.106 26.7285C118.106 21.399 122.446 17.0805 127.801 17.0805ZM127.801 32.037C130.832 32.037 133.289 29.592 133.289 26.5755C133.289 23.5575 130.832 21.114 127.801 21.114C124.769 21.114 122.312 23.5575 122.312 26.5755C122.312 29.592 124.769 32.037 127.801 32.037Z" fill="#757677"/>
</svg>
