<?xml version="1.0" encoding="UTF-8"?>
<svg xmlns="http://www.w3.org/2000/svg" width="141" height="55" viewBox="0 0 141 55" fill="none">
  <path d="M9.49219 5.05859V39.4968L13.8983 39.5139V23.1147H24.4898V18.7758H13.8813V9.38046H27.6926V5.05859H9.49219ZM35.5897 12.0624C36.3537 12.0624 37.0865 11.7564 37.6268 11.2118C38.1671 10.6672 38.4706 9.92858 38.4706 9.15838C38.4706 8.38819 38.1671 7.64954 37.6268 7.10493C37.0865 6.56032 36.3537 6.25437 35.5897 6.25437C34.8256 6.25437 34.0929 6.56032 33.5526 7.10493C33.0123 7.64954 32.7088 8.38819 32.7088 9.15838C32.7088 9.92858 33.0123 10.6672 33.5526 11.2118C34.0929 11.7564 34.8256 12.0624 35.5897 12.0624ZM33.3697 16.3843V39.5139H37.7758V16.3843H33.3697Z" fill="#757677"></path>
  <path fill-rule="evenodd" clip-rule="evenodd" d="M54.0612 15.718C48.2317 15.718 44.1645 20.689 44.1645 26.5996C44.1645 32.5101 48.2317 37.4811 54.0612 37.4811C56.7388 37.4811 58.9418 36.4561 60.5517 34.7479V37.8227C60.5629 38.7415 60.3933 39.6534 60.0528 40.5056C59.7123 41.3579 59.2075 42.1337 58.5677 42.7882C57.9279 43.4426 57.1658 43.9627 56.3254 44.3185C55.485 44.6742 54.583 44.8585 53.6715 44.8607C52.2649 44.8607 50.8753 44.3141 49.7738 43.5283L47.5707 47.3718C49.2742 48.4818 51.2433 49.1077 53.2703 49.1836C55.2973 49.2594 57.307 48.7824 59.0875 47.8028C60.8679 46.8232 62.3531 45.3774 63.3863 43.6179C64.4195 41.8583 64.9624 39.8503 64.9578 37.8056V16.4013H60.5517V18.4683C58.9418 16.7601 56.7388 15.7351 54.0612 15.7351V15.718ZM48.5536 26.5996C48.5536 22.9268 51.3329 20.0399 54.5527 20.0399C57.7725 20.0399 60.5348 22.9439 60.5348 26.5996C60.5348 30.2723 57.7555 33.1421 54.5527 33.1421C51.3329 33.1421 48.5536 30.2723 48.5536 26.5996Z" fill="#757677"></path>
  <path d="M80.7857 20.04C79.5256 20.0624 78.3248 20.584 77.4432 21.4919C76.5616 22.3998 76.07 23.621 76.0746 24.8914V39.514H71.6685V16.3844H76.0746V18.5026C76.7338 17.6219 77.5901 16.9106 78.5737 16.4267C79.5573 15.9429 80.6404 15.7001 81.7347 15.7181C84.819 15.7181 87.1915 17.2556 88.5472 19.6129C89.3035 18.4312 90.3387 17.4568 91.5601 16.7771C92.7815 16.0974 94.151 15.7336 95.546 15.7181C100.545 15.7181 103.68 19.7838 103.68 24.8231V39.514H99.3082V24.8743C99.3128 23.6039 98.8211 22.3827 97.9395 21.4748C97.0579 20.5669 95.8572 20.0454 94.597 20.0229C93.3369 20.0454 92.1362 20.5669 91.2546 21.4748C90.3729 22.3827 89.8813 23.6039 89.8859 24.8743V39.4969H85.4799V24.8743C85.4846 23.6068 84.9953 22.3881 84.1173 21.4807C83.2393 20.5733 82.0429 20.0498 80.7857 20.0229V20.04Z" fill="#757677"></path>
  <path fill-rule="evenodd" clip-rule="evenodd" d="M127.117 19.015C126.117 17.9633 124.914 17.1285 123.582 16.5616C122.251 15.9948 120.818 15.7077 119.373 15.7181C112.831 15.7181 108.188 21.287 108.188 27.9491C108.188 34.6113 112.831 40.1802 119.373 40.1802C120.818 40.1876 122.249 39.8992 123.581 39.3325C124.912 38.7657 126.115 37.9325 127.117 36.8833V39.514H131.506V16.3843H127.1V19.015H127.117ZM112.577 27.9491C112.577 23.5419 115.933 20.04 119.847 20.04C123.745 20.04 127.117 23.5419 127.117 27.9491C127.117 32.3564 123.762 35.8412 119.847 35.8412C115.95 35.8412 112.577 32.3564 112.577 27.9491Z" fill="#757677"></path>
</svg>
