<?xml version="1.0" encoding="UTF-8"?>
<svg xmlns="http://www.w3.org/2000/svg" width="155" height="50" viewBox="0 0 155 50" fill="none">
  <path fill-rule="evenodd" clip-rule="evenodd" d="M17.5732 6.79541C15.5664 6.79541 13.9398 8.42568 13.9398 10.4362C13.9393 10.9138 14.0329 11.3868 14.2152 11.8283C14.3976 12.2697 14.6651 12.671 15.0025 13.009C15.3399 13.3471 15.7406 13.6154 16.1817 13.7986C16.6227 13.9819 17.0956 14.0764 17.5732 14.0769H21.2073V10.4362C21.2081 9.47148 20.8257 8.54599 20.1442 7.86323C19.4627 7.18048 18.5379 6.79638 17.5732 6.79541ZM17.5732 16.5041H7.88344C5.87663 16.5041 4.25 18.1343 4.25 20.1454C4.25 22.1559 5.87663 23.7861 7.88344 23.7861H17.5738C19.58 23.7861 21.2073 22.1559 21.2073 20.1454C21.2073 18.1343 19.58 16.5041 17.5732 16.5041ZM50.2771 35.5859L52.0588 31.4214C54.0097 32.8661 56.5542 33.6308 59.0994 33.6308C60.9657 33.6308 62.1531 32.9087 62.1531 31.804C62.1367 30.6208 60.4523 30.251 58.3875 29.7976C55.1125 29.0785 50.8804 28.1493 50.8282 23.4312C50.7856 19.5216 54.264 16.5044 59.1846 16.5044C62.1106 16.5044 65.0377 17.227 67.1157 18.8847L65.4508 23.138C63.5389 21.9086 61.1774 21.0515 58.9297 21.0515C57.4028 21.0515 56.3845 21.7736 56.3845 22.7091C56.4012 23.8876 58.1324 24.3529 60.244 24.9204C63.5389 25.806 67.7597 26.9404 67.8372 31.4214C67.8372 35.4162 64.4434 38.2211 59.608 38.2211C56.0457 38.2211 52.7797 37.3713 50.2765 35.5859H50.2771ZM121.223 29.9134C120.773 30.7125 120.119 31.3776 119.328 31.8404C118.536 32.3033 117.636 32.5473 116.719 32.5474C113.861 32.5474 111.544 30.226 111.544 27.3627C111.544 24.4994 113.861 22.1781 116.719 22.1781C117.636 22.1782 118.536 22.4221 119.328 22.885C120.119 23.3479 120.773 24.013 121.223 24.8121L126.177 22.0625C124.321 18.7466 120.782 16.5044 116.719 16.5044C110.733 16.5044 105.882 21.3654 105.882 27.3627C105.882 33.3595 110.733 38.2211 116.719 38.2211C120.782 38.2211 124.321 35.9788 126.177 32.6629L121.223 29.9134ZM71.0515 37.7959H77.2441V7.46548H71.0521L71.0515 37.7959ZM129.304 7.46548V37.7959H135.497V28.7089L142.835 37.7959H150.75L141.419 27.0008L150.071 16.9278H142.495L135.497 25.3024V7.46548H129.304ZM96.3226 16.929V19.3945C95.3049 17.6942 92.8023 16.5044 90.1726 16.5044C84.7434 16.5044 80.4596 21.307 80.4596 27.3414C80.4596 33.3759 84.7434 38.2211 90.1726 38.2211C92.8023 38.2211 95.3049 37.0312 96.3226 35.331V37.7959H102.515V16.929H96.3226ZM96.3226 29.9554C95.432 31.4427 93.5657 32.5468 91.4877 32.5468C88.6293 32.5468 86.3128 30.226 86.3128 27.3627C86.3128 24.4994 88.6293 22.1781 91.4877 22.1781C93.5657 22.1781 95.432 23.3254 96.3226 24.8547V29.9554ZM36.9533 16.5041C38.9601 16.5041 40.5873 18.1343 40.5873 20.1454C40.5882 21.1101 40.2058 22.0356 39.5243 22.7183C38.8428 23.4011 37.918 23.7852 36.9533 23.7861H33.3199V20.1454C33.3199 18.1343 34.9465 16.5041 36.9533 16.5041ZM30.8976 10.4362V20.1454V20.146C30.8984 21.1107 30.516 22.0362 29.8345 22.7189C29.153 23.4017 28.2282 23.7858 27.2635 23.7868C25.2567 23.7868 23.6301 22.1565 23.6301 20.1448V10.4362C23.6301 8.42568 25.2567 6.79541 27.2635 6.79541C28.2282 6.79638 29.153 7.18048 29.8345 7.86323C30.516 8.54599 30.8984 9.47148 30.8976 10.4362ZM27.2635 43.2041C28.2282 43.2032 29.153 42.8191 29.8345 42.1363C30.516 41.4536 30.8984 40.5281 30.8976 39.5634C30.8984 38.5987 30.516 37.6732 29.8345 36.9905C29.153 36.3077 28.2282 35.9236 27.2635 35.9227H23.6301V39.5634C23.6301 41.5739 25.2567 43.2041 27.2635 43.2041ZM27.2635 33.4955H36.9539C38.9601 33.4955 40.5873 31.8652 40.5873 29.8541C40.5882 28.8895 40.2058 27.964 39.5243 27.2812C38.8428 26.5985 37.918 26.2144 36.9533 26.2134H27.2635C25.2567 26.2134 23.6301 27.8437 23.6301 29.8541C23.6296 30.3318 23.7232 30.8048 23.9055 31.2463C24.0879 31.6877 24.3554 32.089 24.6928 32.427C25.0302 32.7651 25.4308 33.0334 25.8719 33.2166C26.313 33.3999 26.7859 33.4944 27.2635 33.4949V33.4955ZM4.52546 31.2463C4.34313 30.8048 4.24952 30.3318 4.25 29.8541C4.25 27.8437 5.87663 26.2134 7.88345 26.2134H11.5175V29.8541C11.5183 30.8188 11.1359 31.7443 10.4544 32.4271C9.77291 33.1098 8.84812 33.4939 7.88345 33.4949C7.40582 33.4944 6.93296 33.3999 6.49187 33.2166C6.05078 33.0334 5.6501 32.7651 5.3127 32.427C4.97531 32.089 4.7078 31.6877 4.52546 31.2463ZM13.9398 39.5628V29.8541C13.9398 27.8437 15.5664 26.2134 17.5732 26.2134C18.0509 26.2138 18.5238 26.3083 18.965 26.4915C19.4062 26.6747 19.8069 26.943 20.1444 27.281C20.4818 27.6191 20.7494 28.0204 20.9318 28.4619C21.1141 28.9034 21.2078 29.3765 21.2073 29.8541V39.5634C21.2081 40.5281 20.8257 41.4536 20.1442 42.1363C19.4627 42.8191 18.5379 43.2032 17.5732 43.2041C15.5664 43.2041 13.9398 41.5739 13.9398 39.5628Z" fill="#757677"></path>
</svg>
