<?xml version="1.0" encoding="UTF-8"?>
<svg xmlns="http://www.w3.org/2000/svg" width="280" height="280" viewBox="0 0 280 280" fill="none">
  <path d="M186.447 280H93.2233V186.667C93.2233 238.311 135.018 280 186.447 280Z" fill="#FFF100"></path>
  <path d="M186.777 93.0032H280V186.336C280 134.692 238.205 93.0032 186.777 93.0032Z" fill="#FFF100"></path>
  <path d="M186.447 280V186.667H279.67C228.242 186.667 186.447 228.356 186.447 280Z" fill="#FFF100"></path>
  <path fill-rule="evenodd" clip-rule="evenodd" d="M0 93.3332C0 144.88 41.7375 186.667 93.2233 186.667C144.709 186.667 186.447 144.88 186.447 93.3332C186.447 41.7867 144.709 0 93.2233 0C41.7375 0 0 41.7867 0 93.3332ZM186.447 93.3332L93.2233 93.333V186.667C93.2233 135.178 135.018 93.3332 186.447 93.3332Z" fill="#FFF100"></path>
</svg>
