<?xml version="1.0" encoding="UTF-8"?>
<svg xmlns="http://www.w3.org/2000/svg" width="36" height="36" viewBox="0 0 36 36" fill="none">
  <path fill-rule="evenodd" clip-rule="evenodd" d="M8.99942 9.00411L26.9995 9.00321C26.9993 4.02321 22.9791 0.0034135 17.999 0.00366212C13.019 0.00391075 8.99918 4.02411 8.99942 9.00411ZM26.9996 9.00294C31.9796 9.0027 35.9998 13.0225 36.0001 18.0025C36.0003 22.9825 31.9805 27.0027 27.0005 27.0029L26.9996 9.00294ZM27.0006 27.0032C27.0008 31.9832 22.981 36.0034 18.0009 36.0037C13.041 36.0039 9.00076 31.9842 9.00044 27.0042C4.04044 27.0045 0.000248634 22.9847 1.15323e-08 18.0047C-0.000248613 13.0247 4.01958 9.0045 8.99961 9.00425L9.00051 27.0041L27.0006 27.0032Z" fill="#F45E09"></path>
</svg>
