<?xml version="1.0" encoding="UTF-8"?>
<svg xmlns="http://www.w3.org/2000/svg" width="36" height="36" viewBox="0 0 36 36" fill="none">
  <path d="M23.9717 36.0037H11.9859V24.0037C11.9859 30.6437 17.3595 36.0037 23.9717 36.0037Z" fill="#FFF100"></path>
  <path d="M24.0141 11.9612H36V23.9612C36 17.3212 30.6263 11.9612 24.0141 11.9612Z" fill="#FFF100"></path>
  <path d="M23.9717 36.0037L23.9717 24.0037H35.9576C29.3454 24.0037 23.9717 29.3637 23.9717 36.0037Z" fill="#FFF100"></path>
  <path fill-rule="evenodd" clip-rule="evenodd" d="M0 12.0036C0 18.6311 5.36625 24.0037 11.9859 24.0037C18.6055 24.0037 23.9717 18.6311 23.9717 12.0036C23.9717 5.37624 18.6055 0.00366211 11.9859 0.00366211C5.36625 0.00366211 0 5.37624 0 12.0036ZM23.9717 12.0036L11.9859 12.0036V24.0037C11.9859 17.3837 17.3595 12.0036 23.9717 12.0036Z" fill="#FFF100"></path>
</svg>
